<?xml version="1.0" standalone="no"?><svg xmlns="http://www.w3.org/2000/svg" viewBox="0 0 1440 320"><path fill="#528265" fill-opacity="1" d="M0,0L8.9,26.7C17.8,53,36,107,53,122.7C71.1,139,89,117,107,101.3C124.4,85,142,75,160,74.7C177.8,75,196,85,213,80C231.1,75,249,53,267,42.7C284.4,32,302,32,320,74.7C337.8,117,356,203,373,202.7C391.1,203,409,117,427,74.7C444.4,32,462,32,480,58.7C497.8,85,516,139,533,144C551.1,149,569,107,587,96C604.4,85,622,107,640,112C657.8,117,676,107,693,138.7C711.1,171,729,245,747,282.7C764.4,320,782,320,800,288C817.8,256,836,192,853,181.3C871.1,171,889,213,907,224C924.4,235,942,213,960,208C977.8,203,996,213,1013,224C1031.1,235,1049,245,1067,224C1084.4,203,1102,149,1120,122.7C1137.8,96,1156,96,1173,80C1191.1,64,1209,32,1227,37.3C1244.4,43,1262,85,1280,96C1297.8,107,1316,85,1333,112C1351.1,139,1369,213,1387,213.3C1404.4,213,1422,139,1431,101.3L1440,64L1440,0L1431.1,0C1422.2,0,1404,0,1387,0C1368.9,0,1351,0,1333,0C1315.6,0,1298,0,1280,0C1262.2,0,1244,0,1227,0C1208.9,0,1191,0,1173,0C1155.6,0,1138,0,1120,0C1102.2,0,1084,0,1067,0C1048.9,0,1031,0,1013,0C995.6,0,978,0,960,0C942.2,0,924,0,907,0C888.9,0,871,0,853,0C835.6,0,818,0,800,0C782.2,0,764,0,747,0C728.9,0,711,0,693,0C675.6,0,658,0,640,0C622.2,0,604,0,587,0C568.9,0,551,0,533,0C515.6,0,498,0,480,0C462.2,0,444,0,427,0C408.9,0,391,0,373,0C355.6,0,338,0,320,0C302.2,0,284,0,267,0C248.9,0,231,0,213,0C195.6,0,178,0,160,0C142.2,0,124,0,107,0C88.9,0,71,0,53,0C35.6,0,18,0,9,0L0,0Z"></path></svg>